<svg width="757" height="165" viewBox="0 0 757 165" fill="none" xmlns="http://www.w3.org/2000/svg">
<path d="M38.268 106.32V14.88H35.028L23.148 58.08H0.468047V55.92L15.588 2.99999H62.0281V106.32H93.3481V129H2.62805V106.32H38.268ZM185.743 39.36C185.743 35.28 184.903 31.68 183.223 28.56C181.663 25.44 179.503 22.86 176.743 20.82C173.983 18.78 170.803 17.22 167.203 16.14C163.603 15.06 159.823 14.52 155.863 14.52C152.383 14.52 149.083 15 145.963 15.96C142.843 16.8 140.023 18.06 137.503 19.74C135.103 21.42 133.183 23.52 131.743 26.04C130.303 28.44 129.583 31.26 129.583 34.5V35.58C129.583 39.06 130.303 42.06 131.743 44.58C133.183 46.98 135.283 49.08 138.043 50.88C140.923 52.56 144.463 54 148.663 55.2C152.863 56.28 157.783 57.24 163.423 58.08C176.623 60.12 186.343 64.02 192.583 69.78C198.823 75.42 201.943 83.04 201.943 92.64V94.8C201.943 100.2 200.983 105.18 199.063 109.74C197.263 114.18 194.503 118.02 190.783 121.26C187.183 124.5 182.683 127.02 177.283 128.82C171.883 130.62 165.643 131.52 158.563 131.52C150.523 131.52 143.383 130.38 137.143 128.1C131.023 125.7 125.863 122.46 121.663 118.38C117.583 114.18 114.463 109.32 112.303 103.8C110.143 98.16 109.063 92.04 109.063 85.44V80.04H124.183V84.36C124.183 95.4 127.183 103.68 133.183 109.2C139.303 114.72 147.763 117.48 158.563 117.48C167.923 117.48 174.943 115.44 179.623 111.36C184.423 107.16 186.823 101.64 186.823 94.8V93.72C186.823 87.12 184.363 82.08 179.443 78.6C174.643 75.12 166.783 72.6 155.863 71.04C149.503 70.2 143.743 68.94 138.583 67.26C133.543 65.46 129.223 63.18 125.623 60.42C122.023 57.54 119.263 54.12 117.343 50.16C115.423 46.2 114.463 41.52 114.463 36.12V33.96C114.463 29.04 115.483 24.54 117.523 20.46C119.563 16.38 122.383 12.84 125.983 9.83999C129.703 6.83999 134.083 4.55999 139.123 2.99999C144.283 1.31999 149.923 0.479992 156.043 0.479992C163.123 0.479992 169.423 1.49999 174.943 3.54C180.583 5.58 185.323 8.34 189.163 11.82C193.003 15.18 195.883 19.2 197.803 23.88C199.843 28.44 200.863 33.24 200.863 38.28V45.84H185.743V39.36ZM237.638 165H223.598V39.72H237.638V53.76H239.798C242.918 48.36 247.238 44.28 252.758 41.52C258.278 38.64 264.278 37.2 270.758 37.2C276.278 37.2 281.498 38.22 286.418 40.26C291.338 42.3 295.658 45.24 299.378 49.08C303.218 52.92 306.218 57.66 308.378 63.3C310.658 68.94 311.798 75.36 311.798 82.56V86.16C311.798 93.48 310.718 99.96 308.558 105.6C306.398 111.24 303.398 115.98 299.558 119.82C295.838 123.66 291.458 126.6 286.418 128.64C281.378 130.56 276.038 131.52 270.398 131.52C267.518 131.52 264.578 131.16 261.578 130.44C258.578 129.84 255.698 128.88 252.938 127.56C250.298 126.12 247.838 124.44 245.558 122.52C243.278 120.48 241.358 118.08 239.798 115.32H237.638V165ZM267.518 118.2C271.838 118.2 275.798 117.48 279.398 116.04C282.998 114.48 286.118 112.32 288.758 109.56C291.518 106.8 293.618 103.44 295.058 99.48C296.618 95.52 297.398 91.08 297.398 86.16V82.56C297.398 77.76 296.618 73.44 295.058 69.6C293.618 65.64 291.518 62.28 288.758 59.52C286.118 56.64 282.938 54.42 279.218 52.86C275.618 51.3 271.718 50.52 267.518 50.52C263.318 50.52 259.418 51.36 255.818 53.04C252.218 54.6 249.038 56.82 246.278 59.7C243.638 62.58 241.538 66.06 239.978 70.14C238.418 74.1 237.638 78.48 237.638 83.28V85.44C237.638 90.36 238.418 94.86 239.978 98.94C241.538 102.9 243.638 106.32 246.278 109.2C249.038 112.08 252.218 114.3 255.818 115.86C259.418 117.42 263.318 118.2 267.518 118.2ZM401.853 113.88H399.693C396.813 119.88 392.793 124.32 387.633 127.2C382.593 130.08 377.253 131.52 371.613 131.52C365.733 131.52 360.273 130.56 355.233 128.64C350.193 126.6 345.753 123.66 341.913 119.82C338.193 115.86 335.253 111.06 333.093 105.42C330.933 99.78 329.853 93.24 329.853 85.8V82.92C329.853 75.6 330.933 69.12 333.093 63.48C335.253 57.84 338.193 53.1 341.913 49.26C345.753 45.3 350.193 42.3 355.233 40.26C360.273 38.22 365.613 37.2 371.253 37.2C377.373 37.2 382.893 38.58 387.813 41.34C392.853 43.98 396.813 48.12 399.693 53.76H401.853V39.72H415.893V110.64C415.893 114.24 417.513 116.04 420.753 116.04H425.253V129H415.713C411.633 129 408.273 127.68 405.633 125.04C403.113 122.4 401.853 119.04 401.853 114.96V113.88ZM373.053 118.2C377.253 118.2 381.093 117.42 384.573 115.86C388.173 114.3 391.233 112.08 393.753 109.2C396.273 106.32 398.253 102.9 399.693 98.94C401.133 94.86 401.853 90.36 401.853 85.44V83.28C401.853 78.48 401.133 74.1 399.693 70.14C398.253 66.06 396.213 62.58 393.573 59.7C391.053 56.82 387.993 54.6 384.393 53.04C380.913 51.36 377.133 50.52 373.053 50.52C368.853 50.52 365.013 51.3 361.533 52.86C358.053 54.42 354.993 56.64 352.353 59.52C349.833 62.28 347.853 65.7 346.413 69.78C344.973 73.74 344.253 78.12 344.253 82.92V85.8C344.253 96 346.893 103.98 352.173 109.74C357.573 115.38 364.533 118.2 373.053 118.2ZM530.787 97.32C529.827 102.24 528.147 106.8 525.747 111C523.467 115.2 520.527 118.86 516.927 121.98C513.327 124.98 509.127 127.32 504.327 129C499.527 130.68 494.187 131.52 488.307 131.52C482.067 131.52 476.127 130.5 470.487 128.46C464.967 126.42 460.107 123.48 455.907 119.64C451.707 115.68 448.347 110.88 445.827 105.24C443.427 99.6 442.227 93.12 442.227 85.8V83.64C442.227 76.44 443.427 69.96 445.827 64.2C448.347 58.44 451.707 53.58 455.907 49.62C460.107 45.66 464.967 42.6 470.487 40.44C476.127 38.28 482.067 37.2 488.307 37.2C493.947 37.2 499.167 38.04 503.967 39.72C508.767 41.4 512.967 43.8 516.567 46.92C520.287 49.92 523.287 53.52 525.567 57.72C527.967 61.92 529.587 66.48 530.427 71.4L516.387 74.64C516.027 71.52 515.127 68.52 513.687 65.64C512.367 62.64 510.507 60.06 508.107 57.9C505.827 55.62 503.007 53.82 499.647 52.5C496.287 51.18 492.387 50.52 487.947 50.52C483.627 50.52 479.547 51.36 475.707 53.04C471.987 54.6 468.687 56.88 465.807 59.88C462.927 62.76 460.647 66.24 458.967 70.32C457.407 74.4 456.627 78.84 456.627 83.64V85.8C456.627 90.84 457.407 95.4 458.967 99.48C460.647 103.44 462.927 106.8 465.807 109.56C468.687 112.32 472.047 114.48 475.887 116.04C479.727 117.48 483.867 118.2 488.307 118.2C492.747 118.2 496.587 117.54 499.827 116.22C503.187 114.78 506.007 112.98 508.287 110.82C510.687 108.54 512.547 105.96 513.867 103.08C515.307 100.2 516.267 97.2 516.747 94.08L530.787 97.32ZM567.742 88.68C568.102 97.56 570.862 104.7 576.022 110.1C581.182 115.5 588.382 118.2 597.622 118.2C601.822 118.2 605.482 117.72 608.602 116.76C611.722 115.8 614.362 114.48 616.522 112.8C618.802 111.12 620.602 109.2 621.922 107.04C623.362 104.76 624.502 102.36 625.342 99.84L638.662 103.44C636.142 111.72 631.462 118.5 624.622 123.78C617.902 128.94 608.782 131.52 597.262 131.52C590.902 131.52 585.022 130.44 579.622 128.28C574.342 126 569.782 122.82 565.942 118.74C562.102 114.66 559.102 109.8 556.942 104.16C554.782 98.52 553.702 92.28 553.702 85.44V81.12C553.702 74.88 554.782 69.06 556.942 63.66C559.222 58.26 562.342 53.64 566.302 49.8C570.262 45.84 574.882 42.78 580.162 40.62C585.562 38.34 591.382 37.2 597.622 37.2C604.942 37.2 611.242 38.58 616.522 41.34C621.922 43.98 626.302 47.28 629.662 51.24C633.142 55.2 635.662 59.52 637.222 64.2C638.902 68.88 639.742 73.2 639.742 77.16V88.68H567.742ZM597.622 50.52C593.662 50.52 589.942 51.18 586.462 52.5C583.102 53.7 580.102 55.44 577.462 57.72C574.942 60 572.842 62.7 571.162 65.82C569.602 68.82 568.582 72.12 568.102 75.72H625.702C625.462 71.88 624.502 68.4 622.822 65.28C621.262 62.16 619.162 59.52 616.522 57.36C614.002 55.2 611.062 53.52 607.702 52.32C604.462 51.12 601.102 50.52 597.622 50.52ZM683.717 2.99999L704.957 54.48H709.277L730.517 2.99999H756.257L730.337 64.2V67.44L756.257 129H730.517L709.277 77.16H704.957L683.717 129H657.977L683.897 67.44V64.2L657.977 2.99999H683.717Z" fill="white"/>
</svg>
